# xmcd
# 
# Track frame offsets:
#     150
#     25431
#     50359
#     72089
#     92953
#     112008
#     133052
#     150328
#     171500
#     195627
#     213459
#     220980
# 
# Disc length: 3038
# 
# Revision: 0
# Processed by: cddbd v1.5.2PL0 Copyright (c) Steve Scherf et al.
# Submitted via: fre:ac v1.0.31
# 
DISCID=b30bdc0c
DTITLE=西尾維新 - 〈物語〉フェス MEMORIAL ALBUM
DYEAR=2019
DGENRE=Anime
TTITLE0=朗読劇Cパート 1章 阿良々木暦（神谷浩史）✕千石撫子（花澤香菜）✕老倉育（井上麻里奈）
TTITLE1=朗読劇Cパート 2章 忍野扇（水橋かおり）✕忍野忍（坂本真綾）
TTITLE2=朗読劇Cパート 3章 阿良々木暦（神谷浩史）✕羽川翼（堀江由衣）
TTITLE3=M13 chocolate insomnia 羽川翼（堀江由衣）
TTITLE4=M14 恋愛サーキュレーション 千石撫子（花澤香菜）
TTITLE5=M15 夕立方程式 老倉育（井上麻里奈）
TTITLE6=M16 disk cherry mystery 忍野扇（水橋かおり）
TTITLE7=M17 dreamy date drive 戦場ヶ原ひたぎ（斎藤千和）
TTITLE8=朗読劇エンディング 1章 忍野メメ（櫻井孝宏）／阿良々木暦（神谷浩史）✕戦場ヶ原ひたぎ（斎藤千和）／オールキャスト
TTITLE9=M18 wicked prince - princess a la mode
TTITLE10=朗読劇エンディング 2章 オールキャスト
TTITLE11=M19 君の知らない物語（TV size） supercell
EXTD=
EXTT0=
EXTT1=
EXTT2=
EXTT3=
EXTT4=
EXTT5=
EXTT6=
EXTT7=
EXTT8=
EXTT9=
EXTT10=
EXTT11=
PLAYORDER=
